<svg width="2149" height="528" viewBox="0 0 2149 528" fill="none" xmlns="http://www.w3.org/2000/svg">
<rect width="2149" height="528" rx="167" fill="white"/>
<path d="M291 122.5C368.539 122.5 431.5 185.57 431.5 263.5C431.5 341.43 368.539 404.5 291 404.5C213.461 404.5 150.5 341.43 150.5 263.5C150.5 185.57 213.461 122.5 291 122.5Z" fill="white" stroke="black" stroke-width="39"/>
<path d="M973 122.5C1050.54 122.5 1113.5 185.57 1113.5 263.5C1113.5 341.43 1050.54 404.5 973 404.5C895.461 404.5 832.5 341.43 832.5 263.5C832.5 185.57 895.461 122.5 973 122.5Z" fill="white" stroke="black" stroke-width="39"/>
<rect x="481" y="233" width="35" height="191" fill="black"/>
<rect x="516" y="389" width="95" height="35" fill="black"/>
<rect x="611" y="233" width="35" height="191" fill="black"/>
<rect x="1161" y="233" width="35" height="191" fill="black"/>
<rect x="1291" y="315" width="35" height="109" fill="black"/>
<rect x="1421" y="315" width="35" height="109" fill="black"/>
<rect x="715" y="198" width="35" height="226" fill="black"/>
<rect x="680" y="233" width="105" height="35" fill="black"/>
<rect x="750" y="389" width="35" height="35" fill="black"/>
<path d="M270.449 185.068C279.782 169.597 302.218 169.597 311.551 185.068L317.492 194.917C321.751 201.978 329.337 206.358 337.582 206.516L349.081 206.737C367.146 207.083 378.364 226.514 369.632 242.332L364.073 252.401C360.088 259.62 360.088 268.38 364.073 275.599L369.632 285.668C378.364 301.486 367.146 320.917 349.081 321.263L337.582 321.484C329.337 321.642 321.751 326.022 317.492 333.083L311.551 342.932C302.218 358.403 279.782 358.403 270.449 342.932L264.508 333.083C260.249 326.022 252.663 321.642 244.418 321.484L232.919 321.263C214.854 320.917 203.636 301.486 212.368 285.668L217.927 275.599C221.912 268.38 221.912 259.62 217.927 252.401L212.368 242.332C203.636 226.514 214.854 207.083 232.919 206.737L244.418 206.516C252.663 206.358 260.249 201.978 264.508 194.917L270.449 185.068Z" fill="black"/>
<path d="M953.002 181.141C962.495 166.833 983.505 166.833 992.998 181.141L1007.24 202.611C1010.43 207.418 1015.25 210.915 1020.8 212.462L1045.62 219.376C1062.17 223.983 1068.66 243.965 1057.98 257.415L1041.97 277.597C1038.38 282.115 1036.54 287.774 1036.79 293.537L1037.88 319.279C1038.61 336.435 1021.61 348.784 1005.52 342.789L981.38 333.792C975.975 331.778 970.025 331.778 964.62 333.792L940.476 342.789C924.385 348.784 907.388 336.435 908.118 319.279L909.213 293.537C909.458 287.774 907.62 282.115 904.034 277.597L888.017 257.415C877.342 243.965 883.835 223.983 900.377 219.376L925.198 212.462C930.754 210.915 935.568 207.418 938.757 202.611L953.002 181.141Z" fill="black"/>
<path d="M1178.5 315.5C1178.5 306.964 1180.18 298.512 1183.45 290.626C1186.71 282.739 1191.5 275.574 1197.54 269.538C1203.57 263.502 1210.74 258.714 1218.63 255.448C1226.51 252.181 1234.96 250.5 1243.5 250.5C1252.04 250.5 1260.49 252.181 1268.37 255.448C1276.26 258.714 1283.43 263.502 1289.46 269.538C1295.5 275.574 1300.29 282.739 1303.55 290.626C1306.82 298.512 1308.5 306.964 1308.5 315.5" stroke="black" stroke-width="35"/>
<path d="M1308.5 315.5C1308.5 306.964 1310.18 298.512 1313.45 290.626C1316.71 282.739 1321.5 275.574 1327.54 269.538C1333.57 263.502 1340.74 258.714 1348.63 255.448C1356.51 252.181 1364.96 250.5 1373.5 250.5C1382.04 250.5 1390.49 252.181 1398.37 255.448C1406.26 258.714 1413.43 263.502 1419.46 269.538C1425.5 275.574 1430.29 282.739 1433.55 290.626C1436.82 298.512 1438.5 306.964 1438.5 315.5" stroke="black" stroke-width="35"/>
<rect x="1715" y="233" width="35" height="191" fill="black"/>
<rect x="1845" y="315" width="35" height="109" fill="black"/>
<rect x="1975" y="315" width="35" height="109" fill="black"/>
<path d="M1732.5 315.5C1732.5 306.964 1734.18 298.512 1737.45 290.626C1740.71 282.739 1745.5 275.574 1751.54 269.538C1757.57 263.502 1764.74 258.714 1772.63 255.448C1780.51 252.181 1788.96 250.5 1797.5 250.5C1806.04 250.5 1814.49 252.181 1822.37 255.448C1830.26 258.714 1837.43 263.502 1843.46 269.538C1849.5 275.574 1854.29 282.739 1857.55 290.626C1860.82 298.512 1862.5 306.964 1862.5 315.5" stroke="black" stroke-width="35"/>
<path d="M1862.5 315.5C1862.5 306.964 1864.18 298.512 1867.45 290.626C1870.71 282.739 1875.5 275.574 1881.54 269.538C1887.57 263.502 1894.74 258.714 1902.63 255.448C1910.51 252.181 1918.96 250.5 1927.5 250.5C1936.04 250.5 1944.49 252.181 1952.37 255.448C1960.26 258.714 1967.43 263.502 1973.46 269.538C1979.5 275.574 1984.29 282.739 1987.55 290.626C1990.82 298.512 1992.5 306.964 1992.5 315.5" stroke="black" stroke-width="35"/>
<mask id="path-22-inside-1_145_95" fill="white">
<path d="M1681 328.5C1681 315.959 1678.53 303.54 1673.73 291.954C1668.93 280.367 1661.9 269.839 1653.03 260.971C1644.16 252.103 1633.63 245.069 1622.05 240.27C1610.46 235.47 1598.04 233 1585.5 233C1572.96 233 1560.54 235.47 1548.95 240.27C1537.37 245.069 1526.84 252.103 1517.97 260.971C1509.1 269.839 1502.07 280.367 1497.27 291.954C1492.47 303.54 1490 315.959 1490 328.5L1585.5 328.5H1681Z"/>
</mask>
<path d="M1681 328.5C1681 315.959 1678.53 303.54 1673.73 291.954C1668.93 280.367 1661.9 269.839 1653.03 260.971C1644.16 252.103 1633.63 245.069 1622.05 240.27C1610.46 235.47 1598.04 233 1585.5 233C1572.96 233 1560.54 235.47 1548.95 240.27C1537.37 245.069 1526.84 252.103 1517.97 260.971C1509.1 269.839 1502.07 280.367 1497.27 291.954C1492.47 303.54 1490 315.959 1490 328.5L1585.5 328.5H1681Z" fill="white" stroke="black" stroke-width="70" mask="url(#path-22-inside-1_145_95)"/>
<mask id="path-23-inside-2_145_95" fill="white">
<path d="M1653.03 396.029C1639.67 409.385 1622.66 418.48 1604.13 422.165C1585.61 425.85 1566.4 423.959 1548.95 416.73C1531.5 409.502 1516.59 397.262 1506.09 381.557C1495.6 365.852 1490 347.388 1490 328.5H1524.93C1524.93 340.481 1528.48 352.192 1535.13 362.154C1541.79 372.115 1551.25 379.879 1562.32 384.464C1573.39 389.049 1585.57 390.248 1597.32 387.911C1609.07 385.574 1619.86 379.805 1628.33 371.333L1653.03 396.029Z"/>
</mask>
<path d="M1653.03 396.029C1639.67 409.385 1622.66 418.48 1604.13 422.165C1585.61 425.85 1566.4 423.959 1548.95 416.73C1531.5 409.502 1516.59 397.262 1506.09 381.557C1495.6 365.852 1490 347.388 1490 328.5H1524.93C1524.93 340.481 1528.48 352.192 1535.13 362.154C1541.79 372.115 1551.25 379.879 1562.32 384.464C1573.39 389.049 1585.57 390.248 1597.32 387.911C1609.07 385.574 1619.86 379.805 1628.33 371.333L1653.03 396.029Z" fill="white" stroke="black" stroke-width="70" mask="url(#path-23-inside-2_145_95)"/>
</svg>
